<?xml version="1.0" encoding="UTF-8" standalone="no"?>
<!DOCTYPE svg PUBLIC "-//W3C//DTD SVG 1.1//EN" "http://www.w3.org/Graphics/SVG/1.1/DTD/svg11.dtd">
<svg width="100%" height="100%" viewBox="0 0 1502 290" version="1.1" xmlns="http://www.w3.org/2000/svg" xmlns:xlink="http://www.w3.org/1999/xlink" xml:space="preserve" xmlns:serif="http://www.serif.com/" style="fill-rule:evenodd;clip-rule:evenodd;stroke-linejoin:round;stroke-miterlimit:2;">
    <g transform="matrix(1,0,0,1,-249.177427,-855.253761)">
        <g transform="matrix(1,0,0,1,-2050,-2050)">
            <g transform="matrix(1.218225,0,0,1.218225,1551.269896,1929.439205)">
                <g transform="matrix(0.464919,0,0,0.354529,212.130356,582.0515)">
                    <path d="M972.153,716.512C987.803,764.854 1052.051,903.712 1080.007,963.408C1081.651,966.956 1084.895,968.636 1087.944,967.517C1090.993,966.398 1093.101,962.754 1093.101,958.602C1093.104,867.595 1093.104,617.613 1093.104,617.613C1104.426,626.544 1120.963,642.258 1140.729,668.975C1169.821,708.296 1189.472,750.115 1201.016,778.891C1196.198,777.599 1191.78,777.218 1188.429,777.891C1181.596,779.262 1175.527,785.605 1172.105,797.195C1168.31,810.052 1167.796,832.135 1167.708,845.157L1167.707,845.307L1167.707,1060.202L1167.708,1060.351C1167.796,1073.374 1168.31,1095.457 1172.105,1108.313C1175.527,1119.904 1181.596,1126.246 1188.429,1127.618C1191.78,1128.291 1196.198,1127.91 1201.016,1126.618C1189.472,1155.394 1169.821,1197.213 1140.729,1236.533C1120.963,1263.25 1104.426,1278.965 1093.104,1287.895C1093.104,1287.895 1103.432,1218.837 1093.104,1186.739C1077.454,1138.103 1013.203,999.401 985.247,939.794C983.603,936.248 980.359,934.57 977.311,935.69C974.263,936.81 972.156,940.454 972.156,944.604C972.153,1035.96 972.153,1287.895 972.153,1287.895C960.831,1278.965 944.294,1263.25 924.528,1236.533C895.436,1197.213 875.785,1155.394 864.241,1126.618C869.059,1127.91 873.477,1128.291 876.828,1127.618C883.661,1126.246 889.73,1119.904 893.152,1108.313C896.947,1095.457 897.461,1073.374 897.549,1060.351L897.549,1060.202L897.549,845.307L897.549,845.157C897.461,832.135 896.947,810.052 893.152,797.195C889.73,785.605 883.661,779.262 876.828,777.891C873.477,777.218 869.059,777.599 864.241,778.891C875.785,750.115 895.436,708.296 924.528,668.975C944.294,642.258 960.831,626.544 972.153,617.613C972.153,617.613 962,685.148 972.153,716.512Z" style="fill:rgb(239,239,241);"/>
                </g>
                <path d="M827.676,999.049L797.237,999.049C798.169,976.82 798.635,952.404 798.635,925.801C798.635,899.629 798.169,877.364 797.237,859.007L827.676,859.007C826.744,877.077 826.278,899.342 826.278,925.801C826.278,952.834 826.744,977.25 827.676,999.049Z" style="fill:rgb(239,239,241);fill-rule:nonzero;"/>
                <path d="M969.439,995.392C952.373,999.766 938.103,1001.953 926.63,1001.953C901.963,1001.953 883.266,995.195 870.538,981.678C857.81,968.162 851.446,951.759 851.446,932.47C851.446,912.177 858.384,894.537 872.259,879.551C886.134,864.564 905.369,857.071 929.965,857.071C941.509,857.071 951.691,858.111 960.511,860.19L956.962,885.574C945.704,882.634 935.593,881.164 926.63,881.164C911.5,881.164 900.207,885.807 892.749,895.093C885.292,904.379 881.563,915.727 881.563,929.136C881.563,942.831 885.74,954.771 894.094,964.953C902.447,975.135 913.974,980.226 928.674,980.226C932.761,980.226 937.494,979.796 942.872,978.935C941.796,970.976 941.258,963.16 941.258,955.488C941.258,947.743 940.505,939.031 938.999,929.351L969.439,929.351C968.865,940.393 968.578,951.508 968.578,962.694C968.578,970.797 968.865,981.696 969.439,995.392Z" style="fill:rgb(239,239,241);fill-rule:nonzero;"/>
                <path d="M1108.512,999.049L1078.073,999.049C1078.79,975.314 1079.149,954.735 1079.149,937.31L1024.939,937.31C1024.939,952.942 1025.298,973.522 1026.015,999.049L995.575,999.049C996.508,975.386 996.974,950.97 996.974,925.801C996.974,900.346 996.508,878.081 995.575,859.007L1026.015,859.007C1025.154,879.157 1024.724,897.8 1024.724,914.938L1079.364,914.938C1079.364,899.808 1078.934,881.164 1078.073,859.007L1108.512,859.007C1107.509,877.22 1107.007,899.485 1107.007,925.801C1107.007,953.265 1107.509,977.681 1108.512,999.049Z" style="fill:rgb(239,239,241);fill-rule:nonzero;"/>
                <path d="M1237.476,859.007L1236.723,882.132C1222.382,881.057 1208.865,880.519 1196.173,880.519C1196.03,894.071 1195.958,909.166 1195.958,925.801C1195.958,951.615 1196.352,976.031 1197.141,999.049L1167.024,999.049C1167.957,976.246 1168.423,951.831 1168.423,925.801C1168.423,909.452 1168.279,894.358 1167.993,880.519C1157.882,880.519 1144.007,881.093 1126.367,882.24L1127.228,859.007L1237.476,859.007Z" style="fill:rgb(239,239,241);fill-rule:nonzero;"/>
                <g transform="matrix(0.61103,0,0,0.61103,636.554887,-10.666772)">
                    <path d="M1166.878,1537.535C1161.48,1549.623 1156.404,1561.622 1151.652,1573.533C1146.899,1585.445 1142.469,1597.268 1138.361,1609.003C1130.147,1632.239 1126.039,1646.732 1126.039,1652.482L1110.549,1652.482C1110.549,1642.507 1103.684,1619.389 1089.953,1583.127C1083.147,1564.937 1076.253,1547.305 1069.27,1530.23C1062.288,1513.155 1055.217,1496.521 1048.059,1480.326C1033.742,1447.937 1026.583,1428.867 1026.583,1423.116L1045.066,1423.116C1045.066,1431.683 1057.036,1465.011 1080.976,1523.101C1104.916,1581.073 1117.59,1617.335 1118.998,1631.887L1119.702,1631.887C1119.702,1626.371 1122.343,1616.279 1127.624,1601.61C1130.323,1594.217 1134.225,1584.242 1139.33,1571.685C1144.434,1559.128 1150.859,1543.755 1158.605,1525.565L1170.047,1498.633C1181.078,1472.463 1188.647,1454.156 1192.754,1443.712C1196.862,1433.15 1198.915,1426.285 1198.915,1423.116L1215.462,1423.116C1215.462,1426.402 1213.526,1432.681 1209.653,1441.952C1207.658,1446.646 1204.871,1453.041 1201.292,1461.139C1197.713,1469.236 1193.282,1479.152 1188.002,1490.888L1166.878,1537.535Z" style="fill:rgb(239,239,241);fill-rule:nonzero;"/>
                </g>
                <g transform="matrix(0.61103,0,0,0.61103,636.554887,-10.666772)">
                    <path d="M1257.005,1652.482L1258.237,1615.692C1259.645,1580.369 1260.35,1552.38 1260.35,1531.726C1260.35,1510.486 1259.821,1487.426 1258.765,1462.547C1258.179,1450.108 1257.768,1440.602 1257.533,1434.03C1257.298,1427.576 1257.122,1423.938 1257.005,1423.116L1381.81,1423.116L1381.105,1437.551C1368.079,1437.081 1352.589,1436.729 1334.634,1436.495C1316.679,1436.26 1296.083,1436.143 1272.848,1436.143C1273.082,1449.286 1273.258,1463.251 1273.376,1478.037C1273.493,1492.824 1273.552,1508.667 1273.552,1525.565C1310.283,1525.565 1339.152,1524.861 1360.158,1523.453L1360.158,1539.296C1346.076,1538.709 1331.876,1538.269 1317.559,1537.975C1303.242,1537.682 1288.573,1537.535 1273.552,1537.535L1273.552,1576.438C1273.552,1589.112 1273.64,1600.7 1273.816,1611.203C1273.992,1621.707 1274.197,1631.241 1274.432,1639.808C1296.259,1639.808 1316.972,1639.573 1336.57,1639.104C1356.168,1638.635 1374.944,1637.931 1392.899,1636.992L1392.195,1652.482L1257.005,1652.482Z" style="fill:rgb(239,239,241);fill-rule:nonzero;"/>
                </g>
                <g transform="matrix(0.61103,0,0,0.61103,636.554887,-10.666772)">
                    <path d="M1489.715,1422.236L1499.045,1422.236C1501.744,1422.236 1504.15,1422.178 1506.262,1422.06C1555.198,1422.06 1579.666,1440.485 1579.666,1477.333C1579.666,1492.002 1575.823,1504.559 1568.136,1515.004C1560.45,1525.448 1549.683,1533.663 1535.835,1539.648L1535.835,1540.704C1549.448,1544.342 1561.301,1555.021 1571.393,1572.741C1581.603,1590.579 1593.162,1617.159 1606.071,1652.482L1590.228,1652.482C1586.121,1641.686 1582.013,1631.476 1577.906,1621.853C1573.799,1612.23 1569.574,1603.135 1565.232,1594.569C1556.782,1577.318 1549.507,1566.169 1543.404,1561.123C1537.302,1555.96 1531.728,1552.498 1526.682,1550.737C1521.753,1548.86 1510.722,1547.921 1493.588,1547.921C1485.256,1547.921 1478.274,1547.95 1472.641,1548.009C1467.008,1548.068 1462.666,1548.156 1459.614,1548.273C1459.614,1572.682 1459.79,1593.513 1460.143,1610.763C1460.495,1628.014 1461.081,1641.921 1461.903,1652.482L1442.716,1652.482C1444.007,1628.425 1444.887,1607.419 1445.356,1589.464C1446.06,1571.392 1446.412,1552.146 1446.412,1531.726C1446.412,1512.128 1446.148,1493.352 1445.62,1475.397C1445.092,1457.442 1444.359,1440.015 1443.42,1423.116L1464.015,1423.116L1489.715,1422.236ZM1497.989,1534.895C1517.704,1534.895 1533.664,1529.966 1545.869,1520.108C1558.073,1510.016 1564.176,1496.931 1564.176,1480.854C1564.176,1464.425 1558.953,1452.689 1548.509,1445.648C1538.065,1438.607 1520.697,1435.086 1496.405,1435.086C1481.97,1435.086 1469.472,1435.438 1458.91,1436.143C1459.145,1440.25 1459.321,1445.12 1459.438,1450.753C1459.556,1456.386 1459.614,1462.782 1459.614,1469.94L1459.614,1486.135C1459.614,1490.829 1459.556,1494.878 1459.438,1498.281L1459.262,1534.543C1460.553,1534.66 1462.284,1534.748 1464.455,1534.807C1466.626,1534.866 1469.237,1534.895 1472.289,1534.895L1497.989,1534.895Z" style="fill:rgb(239,239,241);fill-rule:nonzero;"/>
                </g>
                <g transform="matrix(0.61103,0,0,0.61103,636.554887,-10.666772)">
                    <path d="M1784.564,1595.801C1784.564,1616.455 1777.494,1631.916 1763.353,1642.185C1749.212,1652.453 1728.528,1657.587 1701.302,1657.587C1680.061,1657.587 1661.696,1655.299 1646.205,1650.722L1649.726,1634.175C1654.655,1636.053 1659.437,1637.637 1664.072,1638.928C1668.708,1640.219 1673.284,1641.246 1677.802,1642.009C1682.321,1642.771 1686.868,1643.329 1691.445,1643.681C1696.021,1644.033 1700.774,1644.209 1705.703,1644.209C1716.734,1644.209 1726.298,1643.329 1734.396,1641.568C1742.493,1639.808 1749.182,1637.05 1754.463,1633.295C1759.744,1629.54 1763.675,1624.699 1766.257,1618.773C1768.839,1612.846 1770.13,1605.717 1770.13,1597.385C1770.13,1584.359 1766.081,1573.68 1757.984,1565.348C1749.886,1556.898 1734.161,1548.449 1710.808,1540C1687.337,1531.316 1671.084,1522.397 1662.048,1513.243C1652.894,1503.972 1648.318,1492.12 1648.318,1477.685C1648.318,1460.317 1654.772,1446.352 1667.681,1435.791C1680.707,1425.229 1696.608,1419.948 1715.385,1419.948C1736.156,1419.948 1754.052,1422.002 1769.073,1426.109L1765.553,1440.895C1760.037,1439.604 1754.962,1438.519 1750.326,1437.639C1745.691,1436.759 1741.496,1436.025 1737.74,1435.438C1733.985,1434.852 1730.171,1434.412 1726.298,1434.118C1722.426,1433.825 1718.436,1433.678 1714.328,1433.678C1697.782,1433.678 1685.049,1437.433 1676.13,1444.944C1667.211,1452.337 1662.752,1461.667 1662.752,1472.933C1662.752,1481.382 1664.102,1488.188 1666.801,1493.352C1669.617,1498.398 1674.663,1503.532 1681.939,1508.755C1689.215,1513.977 1699.366,1519.052 1712.392,1523.981C1725.536,1528.91 1737.007,1533.868 1746.806,1538.856C1756.605,1543.843 1764.203,1549.329 1769.602,1555.314C1775.235,1561.065 1779.136,1567.138 1781.308,1573.533C1783.479,1579.929 1784.564,1587.352 1784.564,1595.801Z" style="fill:rgb(239,239,241);fill-rule:nonzero;"/>
                </g>
                <g transform="matrix(0.61103,0,0,0.61103,636.554887,-10.666772)">
                    <path d="M1844.414,1652.482L1845.646,1615.692C1847.054,1580.369 1847.758,1552.38 1847.758,1531.726C1847.758,1510.486 1847.23,1487.426 1846.174,1462.547C1845.587,1450.108 1845.177,1440.602 1844.942,1434.03C1844.707,1427.576 1844.531,1423.938 1844.414,1423.116L1969.219,1423.116L1968.514,1437.551C1955.488,1437.081 1939.998,1436.729 1922.043,1436.495C1904.088,1436.26 1883.492,1436.143 1860.257,1436.143C1860.491,1449.286 1860.667,1463.251 1860.785,1478.037C1860.902,1492.824 1860.961,1508.667 1860.961,1525.565C1897.692,1525.565 1926.561,1524.861 1947.567,1523.453L1947.567,1539.296C1933.485,1538.709 1919.285,1538.269 1904.968,1537.975C1890.651,1537.682 1875.982,1537.535 1860.961,1537.535L1860.961,1576.438C1860.961,1589.112 1861.049,1600.7 1861.225,1611.203C1861.401,1621.707 1861.606,1631.241 1861.841,1639.808C1883.668,1639.808 1904.381,1639.573 1923.979,1639.104C1943.577,1638.635 1962.353,1637.931 1980.308,1636.992L1979.604,1652.482L1844.414,1652.482Z" style="fill:rgb(239,239,241);fill-rule:nonzero;"/>
                </g>
            </g>
        </g>
    </g>
</svg>
